<?xml version="1.0" encoding="utf-8"?>
<svg width="800px" height="800px" viewBox="0 0 256 256" xmlns="http://www.w3.org/2000/svg">
  <path d="M128 256c70.692 0 128-57.308 128-128S198.692 0 128 0 0 57.308 0 128s57.308 128 128 128zm0-16c61.856 0 112-50.144 112-112S189.856 16 128 16 16 66.144 16 128s50.144 112 112 112z" fill="#D1D5DB"/>
  <ellipse fill="#D1D5DB" cx="128" cy="128" rx="88" ry="88"/>
  <ellipse fill="#FFFFFF" cx="105" cy="110" rx="12" ry="16"/>
  <ellipse fill="#FFFFFF" cx="151" cy="110" rx="12" ry="16"/>
  <path d="M128 145c12 0 22-5 28-13l-8-6c-4 6-11 9-20 9s-16-3-20-9l-8 6c6 8 16 13 28 13z" fill="#FFFFFF"/>
</svg>
